<svg xmlns="http://www.w3.org/2000/svg" xmlns:xlink="http://www.w3.org/1999/xlink" width="50" zoomAndPan="magnify" viewBox="0 0 37.5 37.499999" height="50" preserveAspectRatio="xMidYMid meet" version="1.0"><path fill="#1a1a1a" d="M 11.664062 16.835938 C 10.273438 17.042969 8.925781 17.320312 7.621094 17.65625 C 8.925781 17.320312 10.273438 17.042969 11.664062 16.835938 Z M 11.664062 16.835938 " fill-opacity="1" fill-rule="evenodd"/><path fill="#1a1a1a" d="M 31.402344 1.15625 L 5.601562 1.15625 C 3.160156 1.15625 1.15625 3.160156 1.15625 5.601562 L 1.15625 31.402344 C 1.15625 33.847656 3.160156 35.851562 5.601562 35.851562 L 31.402344 35.851562 C 33.847656 35.851562 35.851562 33.847656 35.851562 31.402344 L 35.851562 5.601562 C 35.851562 3.160156 33.847656 1.15625 31.402344 1.15625 Z M 12.0625 23.566406 C 9.226562 23.566406 6.925781 21.300781 6.925781 18.503906 C 6.925781 18.273438 6.941406 18.046875 6.972656 17.824219 C 7.308594 15.347656 9.457031 13.4375 12.0625 13.4375 C 14.132812 13.4375 15.914062 14.648438 16.726562 16.386719 C 17.027344 17.03125 17.195312 17.75 17.195312 18.503906 C 17.195312 21.300781 14.898438 23.566406 12.0625 23.566406 Z M 24.945312 23.566406 C 22.109375 23.566406 19.8125 21.300781 19.8125 18.503906 C 19.8125 17.765625 19.972656 17.0625 20.261719 16.425781 C 21.066406 14.667969 22.859375 13.4375 24.945312 13.4375 C 27.644531 13.4375 29.855469 15.492188 30.0625 18.101562 C 30.074219 18.234375 30.082031 18.367188 30.082031 18.503906 C 30.082031 21.300781 27.78125 23.566406 24.945312 23.566406 Z M 24.945312 23.566406 " fill-opacity="1" fill-rule="evenodd"/></svg>