<svg xmlns="http://www.w3.org/2000/svg" xmlns:xlink="http://www.w3.org/1999/xlink" width="50" zoomAndPan="magnify" viewBox="0 0 37.5 37.499999" height="50" preserveAspectRatio="xMidYMid meet" version="1.0"><defs><clipPath id="6f27fdfb2d"><path d="M 0 0 L 37.007812 0 L 37.007812 37.007812 L 0 37.007812 Z M 0 0 " clip-rule="nonzero"/></clipPath></defs><g clip-path="url(#6f27fdfb2d)"><path fill="#000000" d="M 18.503906 0 C 28.714844 0 37.007812 8.292969 37.007812 18.503906 C 37.007812 28.714844 28.714844 37.007812 18.503906 37.007812 C 8.292969 37.007812 0 28.714844 0 18.503906 C 0 8.292969 8.292969 0 18.503906 0 Z M 12.71875 28.902344 L 12.71875 14.453125 L 7.914062 14.453125 L 7.914062 28.902344 Z M 30.039062 28.902344 L 30.039062 20.617188 C 30.039062 16.175781 27.667969 14.113281 24.507812 14.113281 C 21.960938 14.113281 20.816406 15.515625 20.179688 16.496094 L 20.179688 14.453125 L 15.375 14.453125 C 15.441406 15.808594 15.375 28.902344 15.375 28.902344 L 20.179688 28.902344 L 20.179688 20.832031 C 20.179688 20.398438 20.210938 19.96875 20.335938 19.660156 C 20.683594 18.796875 21.476562 17.902344 22.800781 17.902344 C 24.539062 17.902344 25.234375 19.230469 25.234375 21.171875 L 25.234375 28.902344 Z M 10.347656 7.484375 C 8.707031 7.484375 7.632812 8.566406 7.632812 9.980469 C 7.632812 11.367188 8.671875 12.476562 10.285156 12.476562 L 10.316406 12.476562 C 11.992188 12.476562 13.035156 11.367188 13.035156 9.980469 C 13.003906 8.566406 11.992188 7.484375 10.347656 7.484375 Z M 10.347656 7.484375 " fill-opacity="1" fill-rule="evenodd"/></g></svg>