<svg xmlns="http://www.w3.org/2000/svg" xmlns:xlink="http://www.w3.org/1999/xlink" width="50" zoomAndPan="magnify" viewBox="0 0 37.5 37.499999" height="50" preserveAspectRatio="xMidYMid meet" version="1.0"><path fill="#010101" d="M 32.148438 8.234375 C 31.8125 7.992188 31.449219 7.945312 31.0625 8.09375 C 30.753906 8.226562 30.429688 8.320312 30.097656 8.371094 C 29.765625 8.421875 29.429688 8.433594 29.09375 8.402344 C 28.757812 8.371094 28.433594 8.296875 28.113281 8.183594 C 27.796875 8.070312 27.5 7.917969 27.21875 7.730469 C 26.941406 7.539062 26.6875 7.320312 26.464844 7.066406 C 26.238281 6.816406 26.050781 6.542969 25.894531 6.242188 C 25.738281 5.941406 25.625 5.628906 25.546875 5.300781 C 25.46875 4.972656 25.433594 4.640625 25.441406 4.300781 C 25.449219 3.980469 25.34375 3.703125 25.117188 3.46875 C 24.890625 3.230469 24.613281 3.113281 24.285156 3.109375 L 19.660156 3.109375 C 19.507812 3.109375 19.359375 3.140625 19.21875 3.199219 C 19.074219 3.257812 18.949219 3.339844 18.84375 3.449219 C 18.734375 3.558594 18.648438 3.683594 18.589844 3.824219 C 18.53125 3.964844 18.503906 4.113281 18.503906 4.265625 L 18.503906 24.066406 C 18.503906 24.449219 18.429688 24.816406 18.285156 25.171875 C 18.136719 25.527344 17.925781 25.839844 17.65625 26.109375 C 17.386719 26.382812 17.074219 26.589844 16.71875 26.738281 C 16.363281 26.882812 15.996094 26.957031 15.613281 26.957031 C 15.230469 26.957031 14.859375 26.882812 14.503906 26.738281 C 14.152344 26.589844 13.839844 26.382812 13.566406 26.109375 C 13.296875 25.839844 13.085938 25.527344 12.941406 25.171875 C 12.792969 24.816406 12.722656 24.449219 12.722656 24.066406 C 12.722656 23.683594 12.792969 23.3125 12.941406 22.960938 C 13.085938 22.605469 13.296875 22.292969 13.566406 22.023438 C 13.839844 21.75 14.152344 21.542969 14.503906 21.394531 C 14.859375 21.25 15.230469 21.175781 15.613281 21.175781 C 15.765625 21.175781 15.914062 21.144531 16.054688 21.085938 C 16.195312 21.027344 16.320312 20.945312 16.429688 20.835938 C 16.539062 20.726562 16.621094 20.601562 16.679688 20.460938 C 16.738281 20.320312 16.769531 20.171875 16.769531 20.019531 L 16.769531 15.390625 C 16.769531 15.238281 16.738281 15.089844 16.679688 14.949219 C 16.621094 14.808594 16.539062 14.683594 16.429688 14.574219 C 16.320312 14.464844 16.195312 14.382812 16.054688 14.324219 C 15.914062 14.265625 15.765625 14.234375 15.613281 14.234375 C 14.96875 14.238281 14.328125 14.300781 13.695312 14.425781 C 13.0625 14.554688 12.449219 14.738281 11.851562 14.988281 C 11.257812 15.234375 10.691406 15.539062 10.152344 15.894531 C 9.617188 16.253906 9.121094 16.664062 8.664062 17.117188 C 8.207031 17.574219 7.800781 18.070312 7.441406 18.605469 C 7.082031 19.144531 6.78125 19.710938 6.535156 20.304688 C 6.285156 20.902344 6.097656 21.515625 5.972656 22.148438 C 5.847656 22.78125 5.78125 23.421875 5.78125 24.066406 C 5.765625 26.195312 6.382812 28.125 7.632812 29.847656 C 7.863281 30.171875 8.175781 30.332031 8.570312 30.332031 C 8.828125 30.320312 9.054688 30.234375 9.25 30.066406 C 9.378906 29.976562 9.480469 29.867188 9.5625 29.738281 C 9.644531 29.605469 9.695312 29.464844 9.722656 29.3125 C 9.746094 29.160156 9.742188 29.011719 9.707031 28.859375 C 9.671875 28.710938 9.609375 28.574219 9.519531 28.449219 C 8.566406 27.140625 8.09375 25.679688 8.09375 24.066406 C 8.097656 23.621094 8.136719 23.179688 8.214844 22.742188 C 8.292969 22.304688 8.410156 21.875 8.5625 21.460938 C 8.71875 21.042969 8.910156 20.640625 9.132812 20.257812 C 9.359375 19.875 9.617188 19.515625 9.90625 19.175781 C 10.195312 18.835938 10.511719 18.527344 10.855469 18.246094 C 11.199219 17.964844 11.566406 17.714844 11.953125 17.496094 C 12.339844 17.28125 12.746094 17.097656 13.167969 16.953125 C 13.585938 16.808594 14.015625 16.699219 14.457031 16.628906 L 14.457031 18.941406 C 14.140625 19.015625 13.832031 19.117188 13.535156 19.246094 C 13.238281 19.375 12.953125 19.53125 12.683594 19.714844 C 12.417969 19.894531 12.167969 20.101562 11.9375 20.332031 C 11.707031 20.5625 11.5 20.808594 11.316406 21.078125 C 11.132812 21.34375 10.976562 21.628906 10.847656 21.925781 C 10.714844 22.222656 10.613281 22.527344 10.542969 22.84375 C 10.46875 23.160156 10.425781 23.480469 10.414062 23.808594 C 10.398438 24.132812 10.417969 24.453125 10.464844 24.773438 C 10.511719 25.097656 10.589844 25.410156 10.695312 25.71875 C 10.800781 26.023438 10.933594 26.316406 11.09375 26.601562 C 11.257812 26.882812 11.441406 27.144531 11.652344 27.394531 C 11.863281 27.640625 12.09375 27.867188 12.347656 28.070312 C 12.601562 28.273438 12.871094 28.453125 13.15625 28.605469 C 13.441406 28.757812 13.742188 28.882812 14.050781 28.980469 C 14.359375 29.078125 14.675781 29.144531 15 29.183594 C 15.320312 29.222656 15.644531 29.230469 15.96875 29.207031 C 16.292969 29.1875 16.609375 29.132812 16.925781 29.050781 C 17.238281 28.96875 17.542969 28.859375 17.835938 28.722656 C 18.128906 28.582031 18.410156 28.417969 18.671875 28.226562 C 18.933594 28.035156 19.175781 27.824219 19.398438 27.585938 C 19.621094 27.351562 19.820312 27.09375 19.996094 26.820312 C 20.171875 26.546875 20.320312 26.261719 20.441406 25.960938 C 20.5625 25.660156 20.652344 25.347656 20.714844 25.03125 C 20.78125 24.710938 20.8125 24.390625 20.816406 24.066406 L 20.816406 5.421875 L 23.210938 5.421875 C 23.332031 6.167969 23.578125 6.871094 23.949219 7.527344 C 24.320312 8.183594 24.792969 8.757812 25.371094 9.246094 C 25.945312 9.738281 26.585938 10.113281 27.292969 10.375 C 28.003906 10.632812 28.734375 10.765625 29.488281 10.765625 C 29.78125 10.765625 30.070312 10.746094 30.355469 10.707031 L 30.355469 12.953125 C 29.414062 13.117188 28.472656 13.113281 27.53125 12.949219 C 26.589844 12.785156 25.707031 12.464844 24.875 11.992188 C 24.488281 11.769531 24.105469 11.769531 23.71875 11.992188 C 23.332031 12.214844 23.140625 12.550781 23.140625 13 L 23.140625 24.066406 C 23.140625 24.375 23.121094 24.679688 23.082031 24.984375 C 23.042969 25.292969 22.988281 25.59375 22.910156 25.890625 C 22.835938 26.191406 22.742188 26.484375 22.632812 26.769531 C 22.519531 27.058594 22.390625 27.335938 22.246094 27.609375 C 22.101562 27.878906 21.9375 28.140625 21.761719 28.394531 C 21.582031 28.644531 21.390625 28.882812 21.183594 29.113281 C 20.976562 29.339844 20.757812 29.554688 20.523438 29.753906 C 20.289062 29.957031 20.042969 30.140625 19.789062 30.3125 C 19.53125 30.484375 19.265625 30.636719 18.992188 30.777344 C 18.714844 30.914062 18.433594 31.035156 18.144531 31.140625 C 17.851562 31.242188 17.558594 31.328125 17.257812 31.394531 C 16.957031 31.460938 16.652344 31.511719 16.347656 31.542969 C 16.039062 31.570312 15.734375 31.582031 15.425781 31.574219 C 15.117188 31.566406 14.8125 31.539062 14.507812 31.496094 C 14.203125 31.449219 13.902344 31.386719 13.605469 31.304688 C 13.308594 31.222656 13.015625 31.121094 12.734375 31.003906 C 12.445312 30.910156 12.164062 30.921875 11.886719 31.046875 C 11.613281 31.171875 11.414062 31.375 11.296875 31.65625 C 11.183594 31.933594 11.175781 32.214844 11.28125 32.5 C 11.382812 32.785156 11.570312 32.996094 11.84375 33.132812 C 13.054688 33.644531 14.320312 33.898438 15.636719 33.894531 C 16.25 33.894531 16.855469 33.835938 17.457031 33.722656 C 18.0625 33.609375 18.648438 33.4375 19.21875 33.214844 C 19.789062 32.992188 20.335938 32.714844 20.855469 32.390625 C 21.375 32.066406 21.859375 31.695312 22.308594 31.277344 C 22.757812 30.859375 23.167969 30.40625 23.53125 29.914062 C 23.898438 29.421875 24.214844 28.898438 24.484375 28.347656 C 24.75 27.796875 24.964844 27.226562 25.125 26.632812 C 25.289062 26.042969 25.394531 25.441406 25.441406 24.828125 C 25.449219 24.765625 25.449219 24.707031 25.441406 24.644531 L 25.441406 14.792969 C 27.550781 15.527344 29.679688 15.589844 31.824219 14.976562 C 32.082031 14.902344 32.285156 14.757812 32.441406 14.542969 C 32.597656 14.324219 32.667969 14.085938 32.660156 13.820312 L 32.660156 9.25 C 32.679688 8.816406 32.511719 8.476562 32.148438 8.234375 Z M 32.148438 8.234375 " fill-opacity="1" fill-rule="nonzero"/></svg>